<svg height="512pt" viewBox="0 0 512 512" width="512pt" xmlns="http://www.w3.org/2000/svg"><path d="m211 437h90v60h-90zm0 0" fill="#c5e1e6"/><path d="m256 437h45v60h-45zm0 0" fill="#a7d2d7"/><path d="m0 120h512v332h-512zm0 0" fill="#0042a2"/><path d="m256 120h256v332h-256zm0 0" fill="#002859"/><path d="m151 482h210v30h-210zm0 0" fill="#ddebf0"/><path d="m60 90v332h392v-332l-196-29zm0 0" fill="#edf3f6"/><path d="m256 422h196v-332l-196-29zm0 0" fill="#ddebf0"/><path d="m60 0h392v90h-392zm0 0" fill="#0042a2"/><path d="m256 0h196v90h-196zm0 0" fill="#002859"/><path d="m180 150h30v45h-30zm0 0" fill="#8ee16a"/><path d="m241 135h30v60h-30zm0 0" fill="#ff6379"/><path d="m256 135h15v60h-15zm0 0" fill="#f30051"/><path d="m302 120h30v75h-30zm0 0" fill="#ffd400"/><path d="m362 120h30v75h-30zm0 0" fill="#00ca76"/><path d="m120 120h30v75h-30zm0 0" fill="#0042a2"/><g fill="#a7d2d7"><path d="m302 241h30v30h-30zm0 0"/><path d="m362 241h75v30h-75zm0 0"/><path d="m362 303h75v30h-75zm0 0"/><path d="m362 362h75v30h-75zm0 0"/><path d="m302 302h30v30h-30zm0 0"/><path d="m302 362h30v30h-30zm0 0"/></g><path d="m181 242c-41.355469 0-75 33.644531-75 75s33.644531 75 75 75 75-33.644531 75-75zm0 0" fill="#ff6379"/><path d="m181 242v75h75c0-41.355469-33.644531-75-75-75zm0 0" fill="#ffdc55"/><path d="m75 180h362v30h-362zm0 0" fill="#c5e1e6"/><path d="m256 482h105v30h-105zm0 0" fill="#c5e1e6"/><path d="m256 180h181v30h-181zm0 0" fill="#a7d2d7"/></svg>